<svg width="1280" height="720" viewBox="0 0 1280 720" fill="none" xmlns="http://www.w3.org/2000/svg">
  <defs>
    <linearGradient id="bg" x1="0" y1="0" x2="1280" y2="720" gradientUnits="userSpaceOnUse">
      <stop stop-color="#0B1221"/>
      <stop offset="1" stop-color="#101B35"/>
    </linearGradient>
    <linearGradient id="card" x1="200" y1="120" x2="1080" y2="610" gradientUnits="userSpaceOnUse">
      <stop stop-color="#111B31"/>
      <stop offset="1" stop-color="#1A2742"/>
    </linearGradient>
    <linearGradient id="accent" x1="0" y1="0" x2="1" y2="1">
      <stop stop-color="#33D17A"/>
      <stop offset="1" stop-color="#29B6F6"/>
    </linearGradient>
    <radialGradient id="halo" cx="0" cy="0" r="1" gradientUnits="userSpaceOnUse" gradientTransform="translate(980 170) rotate(145) scale(300 220)">
      <stop stop-color="#2AD5A6" stop-opacity="0.5"/>
      <stop offset="1" stop-color="#2AD5A6" stop-opacity="0"/>
    </radialGradient>
  </defs>

  <rect width="1280" height="720" fill="url(#bg)"/>
  <ellipse cx="980" cy="170" rx="320" ry="230" fill="url(#halo)"/>

  <rect x="190" y="110" width="900" height="500" rx="28" fill="url(#card)" stroke="#2D426A" stroke-opacity="0.65"/>

  <circle cx="244" cy="156" r="7" fill="#FF6D6D"/>
  <circle cx="270" cy="156" r="7" fill="#FFD66D"/>
  <circle cx="296" cy="156" r="7" fill="#6DFFAF"/>

  <text x="230" y="202" fill="#E8F0FF" font-family="Segoe UI, Arial, sans-serif" font-size="34" font-weight="700">Github-dev-analyzer</text>
  <text x="230" y="236" fill="#AFC3E9" font-family="Segoe UI, Arial, sans-serif" font-size="20">Profile insights, language usage, and repository analytics</text>

  <g opacity="0.95">
    <rect x="230" y="286" width="250" height="220" rx="16" fill="#0E172A" stroke="#334E7B"/>
    <text x="254" y="324" fill="#AFC3E9" font-family="Consolas, monospace" font-size="16">Top Languages</text>
    <rect x="254" y="344" width="190" height="14" rx="7" fill="#23395D"/>
    <rect x="254" y="344" width="132" height="14" rx="7" fill="#29B6F6"/>
    <text x="254" y="378" fill="#D6E4FF" font-family="Consolas, monospace" font-size="14">JavaScript 69%</text>

    <rect x="254" y="396" width="190" height="14" rx="7" fill="#23395D"/>
    <rect x="254" y="396" width="98" height="14" rx="7" fill="#33D17A"/>
    <text x="254" y="430" fill="#D6E4FF" font-family="Consolas, monospace" font-size="14">TypeScript 52%</text>

    <rect x="254" y="448" width="190" height="14" rx="7" fill="#23395D"/>
    <rect x="254" y="448" width="72" height="14" rx="7" fill="#5FA8FF"/>
    <text x="254" y="482" fill="#D6E4FF" font-family="Consolas, monospace" font-size="14">Python 38%</text>
  </g>

  <g>
    <rect x="520" y="286" width="530" height="220" rx="16" fill="#0E172A" stroke="#334E7B"/>
    <text x="544" y="324" fill="#AFC3E9" font-family="Consolas, monospace" font-size="16">Contribution Trend</text>

    <polyline points="552,462 612,430 672,442 732,386 792,398 852,352 912,366 972,322"
      fill="none" stroke="url(#accent)" stroke-width="6" stroke-linecap="round" stroke-linejoin="round"/>

    <circle cx="612" cy="430" r="6" fill="#29B6F6"/>
    <circle cx="732" cy="386" r="6" fill="#29B6F6"/>
    <circle cx="852" cy="352" r="6" fill="#33D17A"/>
    <circle cx="972" cy="322" r="8" fill="#33D17A"/>
  </g>

  <g>
    <rect x="230" y="530" width="820" height="52" rx="12" fill="#0E172A" stroke="#334E7B"/>
    <text x="254" y="563" fill="#D7E6FF" font-family="Consolas, monospace" font-size="17">Insights: 120 repos analyzed | 860 stars | 1.9k commits tracked</text>
  </g>
</svg>
